<?xml version="1.0" encoding="UTF-8"?>
<svg xmlns="http://www.w3.org/2000/svg" xmlns:xlink="http://www.w3.org/1999/xlink" width="242pt" height="238pt" viewBox="0 0 242 238" version="1.1">
<defs>
<filter id="alpha" filterUnits="objectBoundingBox" x="0%" y="0%" width="100%" height="100%">
  <feColorMatrix type="matrix" in="SourceGraphic" values="0 0 0 0 1 0 0 0 0 1 0 0 0 0 1 0 0 0 1 0"/>
</filter>
<clipPath id="clip1">
  <rect x="0" y="0" width="242" height="238"/>
</clipPath>
<g id="surface7" clip-path="url(#clip1)">
<path style=" stroke:none;fill-rule:nonzero;fill:rgb(0%,0%,0%);fill-opacity:1;" d="M 8.546875 39.375 C 8.316406 24.378906 8.203125 16.878906 11.945312 11.566406 C 13.152344 9.847656 14.621094 8.332031 16.300781 7.074219 C 21.5 3.175781 29 3.0625 43.996094 2.832031 L 194.976562 0.546875 C 209.976562 0.316406 217.472656 0.203125 222.789062 3.945312 C 224.503906 5.152344 226.019531 6.621094 227.28125 8.300781 C 231.179688 13.5 231.292969 21 231.519531 35.996094 L 233.777344 184.980469 C 234.003906 199.976562 234.117188 207.472656 230.378906 212.789062 C 229.171875 214.503906 227.699219 216.019531 226.023438 217.28125 C 220.824219 221.179688 213.324219 221.292969 198.328125 221.519531 L 47.34375 223.808594 C 32.347656 224.035156 24.847656 224.148438 19.535156 220.410156 C 17.816406 219.203125 16.300781 217.730469 15.042969 216.050781 C 11.144531 210.855469 11.03125 203.355469 10.804688 188.359375 Z M 8.546875 39.375 "/>
</g>
<mask id="mask0">
  <g filter="url(#alpha)">
<use xlink:href="#surface7"/>
  </g>
</mask>
<clipPath id="clip2">
  <rect x="0" y="0" width="242" height="238"/>
</clipPath>
<g id="surface6" clip-path="url(#clip2)">
<path style=" stroke:none;fill-rule:nonzero;fill:rgb(98.431396%,44.313049%,52.156067%);fill-opacity:1;" d="M 231.574219 108.09375 C 234.109375 169.347656 186.507812 221.054688 125.257812 223.589844 C 64.007812 226.125 12.296875 178.523438 9.765625 117.273438 C 7.230469 56.023438 52.75 9.035156 114 6.5 C 175.25 3.964844 229.039062 46.84375 231.574219 108.09375 Z M 231.574219 108.09375 "/>
<path style=" stroke:none;fill-rule:nonzero;fill:rgb(16.470337%,16.862488%,16.862488%);fill-opacity:1;" d="M 131.910156 62.507812 C 132.277344 86.804688 113.105469 106.796875 89.082031 107.164062 C 65.058594 107.527344 45.289062 88.125 44.921875 63.828125 C 44.550781 39.527344 63.726562 19.535156 87.75 19.171875 C 111.769531 18.808594 131.542969 38.210938 131.910156 62.507812 Z M 131.910156 62.507812 "/>
<path style=" stroke:none;fill-rule:nonzero;fill:rgb(81.959534%,83.528137%,85.881042%);fill-opacity:1;" d="M 52.917969 63.707031 L 93.667969 237.859375 L 17.464844 239.011719 Z M 52.917969 63.707031 "/>
<path style=" stroke:none;fill-rule:nonzero;fill:rgb(81.959534%,83.528137%,85.881042%);fill-opacity:1;" d="M 107.898438 28.867188 L 165.917969 228.261719 L 55.945312 229.929688 Z M 107.898438 28.867188 "/>
<path style=" stroke:none;fill-rule:nonzero;fill:rgb(100%,100%,100%);fill-opacity:1;" d="M 107.898438 28.867188 L 121.367188 260.441406 L 101.453125 260.742188 Z M 107.898438 28.867188 "/>
<path style=" stroke:none;fill-rule:nonzero;fill:rgb(16.470337%,16.862488%,16.862488%);fill-opacity:1;" d="M 111.382812 93.824219 L 133.5 167.496094 L 141.164062 165.195312 L 119.042969 91.523438 Z M 111.382812 93.824219 "/>
<path style=" stroke:none;fill-rule:nonzero;fill:rgb(16.470337%,16.862488%,16.862488%);fill-opacity:1;" d="M 129.03125 136.558594 L 167.832031 122.972656 L 165.1875 115.421875 L 126.386719 129.011719 Z M 129.03125 136.558594 "/>
<path style=" stroke:none;fill-rule:nonzero;fill:rgb(100%,100%,100%);fill-opacity:1;" d="M 53.402344 62.699219 L 66.875 294.269531 L 46.957031 294.570312 Z M 53.402344 62.699219 "/>
<path style=" stroke:none;fill-rule:nonzero;fill:rgb(16.470337%,16.862488%,16.862488%);fill-opacity:1;" d="M 152.378906 93.203125 L 183.496094 166.738281 L 190.863281 163.621094 L 159.746094 90.085938 Z M 152.378906 93.203125 "/>
<path style=" stroke:none;fill-rule:nonzero;fill:rgb(16.470337%,16.862488%,16.862488%);fill-opacity:1;" d="M 197.570312 105.519531 L 197.433594 162.527344 L 205.433594 162.546875 L 205.570312 105.539062 Z M 197.570312 105.519531 "/>
<path style=" stroke:none;fill-rule:nonzero;fill:rgb(16.470337%,16.862488%,16.862488%);fill-opacity:1;" d="M 172.496094 100.898438 L 225.824219 122.09375 L 228.777344 114.65625 L 175.453125 93.464844 Z M 172.496094 100.898438 "/>
</g>
</defs>
<g id="surface1">
<rect x="0" y="0" width="242" height="238" style="fill:rgb(16.470337%,16.862488%,16.862488%);fill-opacity:1;stroke:none;"/>
<use xlink:href="#surface6" mask="url(#mask0)"/>
</g>
</svg>
